<svg width="403" height="60" viewBox="0 0 403 60" fill="none" xmlns="http://www.w3.org/2000/svg">
<path d="M172 23.2559C173.278 23.2559 174.315 23.1152 175.112 22.834C176.623 22.2949 177.379 21.293 177.379 19.8281C177.379 18.9727 177.004 18.3105 176.254 17.8418C175.504 17.3848 174.326 16.9805 172.721 16.6289L169.979 16.0137C167.283 15.4043 165.42 14.7422 164.389 14.0273C162.643 12.832 161.77 10.9629 161.77 8.41992C161.77 6.09961 162.614 4.17188 164.301 2.63672C165.989 1.10156 168.467 0.333984 171.737 0.333984C174.467 0.333984 176.793 1.06055 178.715 2.51367C180.649 3.95508 181.662 6.05273 181.756 8.80664H176.553C176.459 7.24805 175.78 6.14062 174.514 5.48438C173.67 5.05078 172.621 4.83398 171.367 4.83398C169.973 4.83398 168.86 5.11523 168.028 5.67773C167.196 6.24023 166.78 7.02539 166.78 8.0332C166.78 8.95898 167.19 9.65039 168.01 10.1074C168.537 10.4121 169.662 10.7695 171.385 11.1797L175.85 12.252C177.807 12.7207 179.283 13.3477 180.28 14.1328C181.826 15.3516 182.6 17.1152 182.6 19.4238C182.6 21.791 181.692 23.7598 179.875 25.3301C178.071 26.8887 175.516 27.668 172.211 27.668C168.836 27.668 166.182 26.9004 164.248 25.3652C162.315 23.8184 161.348 21.6973 161.348 19.002H166.516C166.68 20.1855 167.002 21.0703 167.483 21.6562C168.362 22.7227 169.867 23.2559 172 23.2559Z" fill="black"/>
<path d="M142.077 27.7207C138.374 27.7207 135.544 26.7129 133.587 24.6973C130.962 22.2246 129.65 18.6621 129.65 14.0098C129.65 9.26367 130.962 5.70117 133.587 3.32227C135.544 1.30664 138.374 0.298828 142.077 0.298828C145.78 0.298828 148.611 1.30664 150.568 3.32227C153.181 5.70117 154.487 9.26367 154.487 14.0098C154.487 18.6621 153.181 22.2246 150.568 24.6973C148.611 26.7129 145.78 27.7207 142.077 27.7207ZM147.193 20.7598C148.446 19.1777 149.073 16.9277 149.073 14.0098C149.073 11.1035 148.441 8.85938 147.175 7.27734C145.921 5.68359 144.222 4.88672 142.077 4.88672C139.933 4.88672 138.222 5.67773 136.945 7.25977C135.667 8.8418 135.029 11.0918 135.029 14.0098C135.029 16.9277 135.667 19.1777 136.945 20.7598C138.222 22.3418 139.933 23.1328 142.077 23.1328C144.222 23.1328 145.927 22.3418 147.193 20.7598Z" fill="black"/>
<path d="M116.215 1.08984H121.594V27H116.215V1.08984Z" fill="black"/>
<path d="M101.989 17.0156V1.08984H107.491V17.0156C107.491 19.7695 107.064 21.9141 106.208 23.4492C104.614 26.2617 101.573 27.668 97.0851 27.668C92.5968 27.668 89.5499 26.2617 87.9445 23.4492C87.089 21.9141 86.6613 19.7695 86.6613 17.0156V1.08984H92.1632V17.0156C92.1632 18.7969 92.3741 20.0977 92.796 20.918C93.4523 22.3711 94.882 23.0977 97.0851 23.0977C99.2765 23.0977 100.7 22.3711 101.357 20.918C101.778 20.0977 101.989 18.7969 101.989 17.0156Z" fill="black"/>
<path d="M70.2559 27.1406C69.0958 27.5273 67.7071 27.7207 66.0899 27.7207C62.7149 27.7207 59.9258 26.7129 57.7227 24.6973C55.0508 22.2715 53.7149 18.709 53.7149 14.0098C53.7149 9.27539 55.086 5.69531 57.8282 3.26953C60.0665 1.28906 62.8497 0.298828 66.1778 0.298828C69.5294 0.298828 72.3419 1.34766 74.6153 3.44531C77.2403 5.87109 78.5528 9.26367 78.5528 13.623C78.5528 15.9316 78.2715 17.8652 77.709 19.4238C77.252 20.9121 76.5782 22.1484 75.6876 23.1328L78.6758 25.9277L75.8458 28.8809L72.7169 25.9277C71.7676 26.502 70.9473 26.9062 70.2559 27.1406ZM69.0958 22.4648L66.4766 19.9688L69.2715 17.0508L71.8907 19.5469C72.3008 18.7031 72.588 17.9648 72.752 17.332C73.0098 16.3828 73.1387 15.2754 73.1387 14.0098C73.1387 11.1035 72.5411 8.85938 71.3458 7.27734C70.1622 5.68359 68.4278 4.88672 66.1426 4.88672C63.9981 4.88672 62.2872 5.64844 61.0098 7.17188C59.7325 8.69531 59.0938 10.9746 59.0938 14.0098C59.0938 17.5605 60.0079 20.1035 61.836 21.6387C63.0196 22.6348 64.4376 23.1328 66.0899 23.1328C66.711 23.1328 67.3087 23.0566 67.8829 22.9043C68.1993 22.8223 68.6036 22.6758 69.0958 22.4648Z" fill="black"/>
<path d="M44.7452 15.6797H32.1592V22.3418H46.503V27H26.8682V1.08984H45.8702V5.67773H32.1592V11.1797H44.7452V15.6797Z" fill="black"/>
<path d="M0.742188 1.08984H6.15625V22.3418H18.9883V27H0.742188V1.08984Z" fill="black"/>
<path d="M383.218 1.17773H402.044V4.3418H386.628V12.1816H400.884V15.1699H386.628V23.9238H402.308V27H383.218V1.17773Z" fill="black"/>
<path d="M356.951 1.17773L364.369 23.168L371.699 1.17773H375.619L366.198 27H362.489L353.084 1.17773H356.951Z" fill="black"/>
<path d="M341.724 1.17773H345.257V27H341.724V1.17773Z" fill="black"/>
<path d="M333.756 1.17773V4.25391H325.055V27H321.504V4.25391H312.803V1.17773H333.756Z" fill="black"/>
<path d="M302.919 16.418L298.999 5.00977L294.833 16.418H302.919ZM297.171 1.17773H301.126L310.495 27H306.663L304.044 19.2656H293.831L291.036 27H287.45L297.171 1.17773Z" fill="black"/>
<path d="M262.027 1.17773H280.854V4.3418H265.438V12.1816H279.693V15.1699H265.438V23.9238H281.117V27H262.027V1.17773Z" fill="black"/>
<path d="M243.724 13.0078C245.364 13.0078 246.659 12.6797 247.608 12.0234C248.569 11.3672 249.05 10.1836 249.05 8.47266C249.05 6.63281 248.382 5.37891 247.046 4.71094C246.331 4.35938 245.376 4.18359 244.181 4.18359H235.638V13.0078H243.724ZM232.14 1.17773H244.093C246.062 1.17773 247.685 1.46484 248.962 2.03906C251.388 3.14062 252.601 5.17383 252.601 8.13867C252.601 9.68555 252.278 10.9512 251.634 11.9355C251.001 12.9199 250.11 13.7109 248.962 14.3086C249.97 14.7188 250.726 15.2578 251.23 15.9258C251.745 16.5938 252.032 17.6777 252.091 19.1777L252.214 22.6406C252.249 23.625 252.331 24.3574 252.46 24.8379C252.671 25.6582 253.046 26.1855 253.585 26.4199V27H249.296C249.179 26.7773 249.085 26.4902 249.015 26.1387C248.944 25.7871 248.886 25.1074 248.839 24.0996L248.628 19.793C248.546 18.1055 247.919 16.9746 246.747 16.4004C246.079 16.084 245.03 15.9258 243.601 15.9258H235.638V27H232.14V1.17773Z" fill="black"/>
<path d="M212.623 0.474609C215.893 0.474609 218.43 1.33594 220.234 3.05859C222.039 4.78125 223.041 6.73828 223.24 8.92969H219.83C219.443 7.26562 218.67 5.94727 217.51 4.97461C216.361 4.00195 214.744 3.51562 212.658 3.51562C210.115 3.51562 208.059 4.41211 206.488 6.20508C204.93 7.98633 204.15 10.7227 204.15 14.4141C204.15 17.4375 204.854 19.8926 206.26 21.7793C207.678 23.6543 209.787 24.5918 212.588 24.5918C215.166 24.5918 217.129 23.6016 218.477 21.6211C219.191 20.5781 219.725 19.207 220.076 17.5078H223.486C223.182 20.2266 222.174 22.5059 220.463 24.3457C218.412 26.5605 215.646 27.668 212.166 27.668C209.166 27.668 206.646 26.7598 204.607 24.9434C201.924 22.541 200.582 18.832 200.582 13.8164C200.582 10.0078 201.59 6.88477 203.605 4.44727C205.785 1.79883 208.791 0.474609 212.623 0.474609Z" fill="black"/>
<path d="M56.3672 45.5234H64.3281V46.9297H57.9219V50.4141H63.5547V51.7812H57.9219V57H56.3672V45.5234ZM67.6116 48.6328H68.9475V50.0781C69.0569 49.7969 69.3251 49.4557 69.7522 49.0547C70.1793 48.6484 70.6715 48.4453 71.2288 48.4453C71.2548 48.4453 71.2991 48.4479 71.3616 48.4531C71.4241 48.4583 71.5308 48.4688 71.6819 48.4844V49.9688C71.5985 49.9531 71.5204 49.9427 71.4475 49.9375C71.3798 49.9323 71.3043 49.9297 71.2209 49.9297C70.5126 49.9297 69.9683 50.1589 69.5881 50.6172C69.2079 51.0703 69.0178 51.5938 69.0178 52.1875V57H67.6116V48.6328ZM77.9809 56.0938C78.9132 56.0938 79.5513 55.7422 79.895 55.0391C80.244 54.3307 80.4184 53.5443 80.4184 52.6797C80.4184 51.8984 80.2934 51.263 80.0434 50.7734C79.6476 50.0026 78.9653 49.6172 77.9966 49.6172C77.1372 49.6172 76.5122 49.9453 76.1216 50.6016C75.7309 51.2578 75.5356 52.0495 75.5356 52.9766C75.5356 53.8672 75.7309 54.6094 76.1216 55.2031C76.5122 55.7969 77.132 56.0938 77.9809 56.0938ZM78.0356 48.3906C79.1138 48.3906 80.0252 48.75 80.77 49.4688C81.5148 50.1875 81.8872 51.2448 81.8872 52.6406C81.8872 53.9896 81.5591 55.1042 80.9028 55.9844C80.2466 56.8646 79.2283 57.3047 77.8481 57.3047C76.6971 57.3047 75.783 56.9167 75.1059 56.1406C74.4289 55.3594 74.0903 54.3125 74.0903 53C74.0903 51.5938 74.4471 50.474 75.1606 49.6406C75.8742 48.8073 76.8325 48.3906 78.0356 48.3906ZM85.3269 48.6328H86.6628V49.8203C87.0586 49.3307 87.4779 48.9792 87.9206 48.7656C88.3633 48.5521 88.8555 48.4453 89.3972 48.4453C90.5847 48.4453 91.3868 48.8594 91.8034 49.6875C92.0326 50.1406 92.1472 50.7891 92.1472 51.6328V57H90.7175V51.7266C90.7175 51.2161 90.642 50.8047 90.4909 50.4922C90.2409 49.9714 89.7878 49.7109 89.1316 49.7109C88.7982 49.7109 88.5248 49.7448 88.3113 49.8125C87.9258 49.9271 87.5873 50.1562 87.2956 50.5C87.0613 50.776 86.9076 51.0625 86.8347 51.3594C86.767 51.651 86.7331 52.0703 86.7331 52.6172V57H85.3269V48.6328ZM96.2744 46.2969H97.6963V48.6328H99.0322V49.7812H97.6963V55.2422C97.6963 55.5339 97.7952 55.7292 97.9931 55.8281C98.1025 55.8854 98.2848 55.9141 98.54 55.9141C98.6077 55.9141 98.6806 55.9141 98.7588 55.9141C98.8369 55.9089 98.928 55.901 99.0322 55.8906V57C98.8707 57.0469 98.7015 57.0807 98.5244 57.1016C98.3525 57.1224 98.165 57.1328 97.9619 57.1328C97.3056 57.1328 96.8603 56.9661 96.6259 56.6328C96.3916 56.2943 96.2744 55.8568 96.2744 55.3203V49.7812H95.1416V48.6328H96.2744V46.2969ZM105.691 48.4453C106.284 48.4453 106.86 48.5859 107.417 48.8672C107.974 49.1432 108.399 49.5026 108.691 49.9453C108.972 50.3672 109.159 50.8594 109.253 51.4219C109.336 51.8073 109.378 52.4219 109.378 53.2656H103.245C103.271 54.1146 103.472 54.7969 103.847 55.3125C104.222 55.8229 104.803 56.0781 105.589 56.0781C106.323 56.0781 106.909 55.8359 107.347 55.3516C107.597 55.0703 107.774 54.7448 107.878 54.375H109.261C109.224 54.6823 109.102 55.026 108.894 55.4062C108.691 55.7812 108.461 56.0885 108.206 56.3281C107.779 56.7448 107.251 57.026 106.62 57.1719C106.282 57.2552 105.899 57.2969 105.472 57.2969C104.43 57.2969 103.547 56.9193 102.823 56.1641C102.099 55.4036 101.737 54.3411 101.737 52.9766C101.737 51.6328 102.102 50.5417 102.831 49.7031C103.56 48.8646 104.514 48.4453 105.691 48.4453ZM107.933 52.1484C107.876 51.5391 107.743 51.0521 107.534 50.6875C107.149 50.0104 106.506 49.6719 105.605 49.6719C104.959 49.6719 104.417 49.9062 103.98 50.375C103.542 50.8385 103.31 51.4297 103.284 52.1484H107.933ZM112.873 48.6328H114.208V49.8203C114.604 49.3307 115.024 48.9792 115.466 48.7656C115.909 48.5521 116.401 48.4453 116.943 48.4453C118.13 48.4453 118.932 48.8594 119.349 49.6875C119.578 50.1406 119.693 50.7891 119.693 51.6328V57H118.263V51.7266C118.263 51.2161 118.188 50.8047 118.037 50.4922C117.787 49.9714 117.333 49.7109 116.677 49.7109C116.344 49.7109 116.07 49.7448 115.857 49.8125C115.471 49.9271 115.133 50.1562 114.841 50.5C114.607 50.776 114.453 51.0625 114.38 51.3594C114.313 51.651 114.279 52.0703 114.279 52.6172V57H112.873V48.6328ZM124.429 52.9141C124.429 53.8099 124.619 54.5599 125 55.1641C125.38 55.7682 125.989 56.0703 126.828 56.0703C127.479 56.0703 128.013 55.7917 128.429 55.2344C128.851 54.6719 129.062 53.8672 129.062 52.8203C129.062 51.763 128.846 50.9818 128.414 50.4766C127.981 49.9661 127.448 49.7109 126.812 49.7109C126.104 49.7109 125.528 49.9818 125.086 50.5234C124.648 51.0651 124.429 51.862 124.429 52.9141ZM126.547 48.4844C127.187 48.4844 127.724 48.6198 128.156 48.8906C128.406 49.0469 128.69 49.3203 129.007 49.7109V45.4844H130.359V57H129.093V55.8359C128.765 56.3516 128.377 56.724 127.929 56.9531C127.481 57.1823 126.968 57.2969 126.39 57.2969C125.458 57.2969 124.651 56.9062 123.968 56.125C123.286 55.3385 122.945 54.2943 122.945 52.9922C122.945 51.7734 123.255 50.7188 123.875 49.8281C124.5 48.9323 125.39 48.4844 126.547 48.4844ZM140.754 45.5234H145.918C146.939 45.5234 147.762 45.8125 148.387 46.3906C149.012 46.9635 149.324 47.7708 149.324 48.8125C149.324 49.7083 149.046 50.4896 148.488 51.1562C147.931 51.8177 147.074 52.1484 145.918 52.1484H142.309V57H140.754V45.5234ZM147.754 48.8203C147.754 47.9766 147.442 47.4036 146.817 47.1016C146.473 46.9401 146.001 46.8594 145.402 46.8594H142.309V50.8359H145.402C146.1 50.8359 146.666 50.6875 147.098 50.3906C147.535 50.0938 147.754 49.5703 147.754 48.8203ZM156.17 56.0938C157.103 56.0938 157.741 55.7422 158.084 55.0391C158.433 54.3307 158.608 53.5443 158.608 52.6797C158.608 51.8984 158.483 51.263 158.233 50.7734C157.837 50.0026 157.155 49.6172 156.186 49.6172C155.327 49.6172 154.702 49.9453 154.311 50.6016C153.92 51.2578 153.725 52.0495 153.725 52.9766C153.725 53.8672 153.92 54.6094 154.311 55.2031C154.702 55.7969 155.321 56.0938 156.17 56.0938ZM156.225 48.3906C157.303 48.3906 158.215 48.75 158.959 49.4688C159.704 50.1875 160.077 51.2448 160.077 52.6406C160.077 53.9896 159.748 55.1042 159.092 55.9844C158.436 56.8646 157.418 57.3047 156.037 57.3047C154.886 57.3047 153.972 56.9167 153.295 56.1406C152.618 55.3594 152.28 54.3125 152.28 53C152.28 51.5938 152.636 50.474 153.35 49.6406C154.064 48.8073 155.022 48.3906 156.225 48.3906ZM163.555 48.6328H164.891V50.0781C165.001 49.7969 165.269 49.4557 165.696 49.0547C166.123 48.6484 166.615 48.4453 167.173 48.4453C167.199 48.4453 167.243 48.4479 167.305 48.4531C167.368 48.4583 167.475 48.4688 167.626 48.4844V49.9688C167.542 49.9531 167.464 49.9427 167.391 49.9375C167.324 49.9323 167.248 49.9297 167.165 49.9297C166.456 49.9297 165.912 50.1589 165.532 50.6172C165.152 51.0703 164.962 51.5938 164.962 52.1875V57H163.555V48.6328ZM170.886 46.2969H172.308V48.6328H173.643V49.7812H172.308V55.2422C172.308 55.5339 172.406 55.7292 172.604 55.8281C172.714 55.8854 172.896 55.9141 173.151 55.9141C173.219 55.9141 173.292 55.9141 173.37 55.9141C173.448 55.9089 173.539 55.901 173.643 55.8906V57C173.482 57.0469 173.313 57.0807 173.136 57.1016C172.964 57.1224 172.776 57.1328 172.573 57.1328C171.917 57.1328 171.472 56.9661 171.237 56.6328C171.003 56.2943 170.886 55.8568 170.886 55.3203V49.7812H169.753V48.6328H170.886V46.2969ZM177.169 47.3594C177.19 46.776 177.291 46.349 177.474 46.0781C177.802 45.599 178.435 45.3594 179.372 45.3594C179.461 45.3594 179.552 45.362 179.646 45.3672C179.739 45.3724 179.846 45.3802 179.966 45.3906V46.6719C179.82 46.6615 179.713 46.6562 179.646 46.6562C179.583 46.651 179.523 46.6484 179.466 46.6484C179.039 46.6484 178.784 46.7604 178.7 46.9844C178.617 47.2031 178.575 47.7656 178.575 48.6719H179.966V49.7812H178.56V57H177.169V49.7812H176.005V48.6719H177.169V47.3594ZM186.351 56.0938C187.283 56.0938 187.921 55.7422 188.265 55.0391C188.614 54.3307 188.788 53.5443 188.788 52.6797C188.788 51.8984 188.663 51.263 188.413 50.7734C188.018 50.0026 187.335 49.6172 186.367 49.6172C185.507 49.6172 184.882 49.9453 184.492 50.6016C184.101 51.2578 183.906 52.0495 183.906 52.9766C183.906 53.8672 184.101 54.6094 184.492 55.2031C184.882 55.7969 185.502 56.0938 186.351 56.0938ZM186.406 48.3906C187.484 48.3906 188.395 48.75 189.14 49.4688C189.885 50.1875 190.257 51.2448 190.257 52.6406C190.257 53.9896 189.929 55.1042 189.273 55.9844C188.617 56.8646 187.598 57.3047 186.218 57.3047C185.067 57.3047 184.153 56.9167 183.476 56.1406C182.799 55.3594 182.46 54.3125 182.46 53C182.46 51.5938 182.817 50.474 183.531 49.6406C184.244 48.8073 185.202 48.3906 186.406 48.3906ZM193.736 45.5234H195.142V57H193.736V45.5234ZM199.019 48.6719H200.449V57H199.019V48.6719ZM199.019 45.5234H200.449V47.1172H199.019V45.5234ZM207.662 56.0938C208.594 56.0938 209.232 55.7422 209.576 55.0391C209.925 54.3307 210.1 53.5443 210.1 52.6797C210.1 51.8984 209.975 51.263 209.725 50.7734C209.329 50.0026 208.647 49.6172 207.678 49.6172C206.818 49.6172 206.193 49.9453 205.803 50.6016C205.412 51.2578 205.217 52.0495 205.217 52.9766C205.217 53.8672 205.412 54.6094 205.803 55.2031C206.193 55.7969 206.813 56.0938 207.662 56.0938ZM207.717 48.3906C208.795 48.3906 209.706 48.75 210.451 49.4688C211.196 50.1875 211.568 51.2448 211.568 52.6406C211.568 53.9896 211.24 55.1042 210.584 55.9844C209.928 56.8646 208.91 57.3047 207.529 57.3047C206.378 57.3047 205.464 56.9167 204.787 56.1406C204.11 55.3594 203.772 54.3125 203.772 53C203.772 51.5938 204.128 50.474 204.842 49.6406C205.555 48.8073 206.514 48.3906 207.717 48.3906ZM221.557 45.5234H229.518V46.9297H223.112V50.4141H228.745V51.7812H223.112V57H221.557V45.5234ZM232.802 48.6328H234.137V50.0781C234.247 49.7969 234.515 49.4557 234.942 49.0547C235.369 48.6484 235.861 48.4453 236.419 48.4453C236.445 48.4453 236.489 48.4479 236.552 48.4531C236.614 48.4583 236.721 48.4688 236.872 48.4844V49.9688C236.789 49.9531 236.71 49.9427 236.637 49.9375C236.57 49.9323 236.494 49.9297 236.411 49.9297C235.703 49.9297 235.158 50.1589 234.778 50.6172C234.398 51.0703 234.208 51.5938 234.208 52.1875V57H232.802V48.6328ZM243.171 56.0938C244.103 56.0938 244.741 55.7422 245.085 55.0391C245.434 54.3307 245.608 53.5443 245.608 52.6797C245.608 51.8984 245.483 51.263 245.233 50.7734C244.838 50.0026 244.155 49.6172 243.187 49.6172C242.327 49.6172 241.702 49.9453 241.312 50.6016C240.921 51.2578 240.726 52.0495 240.726 52.9766C240.726 53.8672 240.921 54.6094 241.312 55.2031C241.702 55.7969 242.322 56.0938 243.171 56.0938ZM243.226 48.3906C244.304 48.3906 245.215 48.75 245.96 49.4688C246.705 50.1875 247.077 51.2448 247.077 52.6406C247.077 53.9896 246.749 55.1042 246.093 55.9844C245.437 56.8646 244.418 57.3047 243.038 57.3047C241.887 57.3047 240.973 56.9167 240.296 56.1406C239.619 55.3594 239.28 54.3125 239.28 53C239.28 51.5938 239.637 50.474 240.351 49.6406C241.064 48.8073 242.023 48.3906 243.226 48.3906ZM250.517 48.6328H251.908V49.8203C252.241 49.4089 252.543 49.1094 252.814 48.9219C253.277 48.6042 253.803 48.4453 254.392 48.4453C255.059 48.4453 255.595 48.6094 256.001 48.9375C256.23 49.125 256.439 49.401 256.626 49.7656C256.939 49.3177 257.306 48.987 257.728 48.7734C258.15 48.5547 258.624 48.4453 259.15 48.4453C260.275 48.4453 261.04 48.8516 261.447 49.6641C261.665 50.1016 261.775 50.6901 261.775 51.4297V57H260.314V51.1875C260.314 50.6302 260.173 50.2474 259.892 50.0391C259.616 49.8307 259.277 49.7266 258.876 49.7266C258.324 49.7266 257.848 49.9115 257.447 50.2812C257.051 50.651 256.853 51.2682 256.853 52.1328V57H255.423V51.5391C255.423 50.9714 255.355 50.5573 255.22 50.2969C255.006 49.9062 254.608 49.7109 254.025 49.7109C253.493 49.7109 253.009 49.9167 252.572 50.3281C252.139 50.7396 251.923 51.4844 251.923 52.5625V57H250.517V48.6328ZM276.959 45.2109C278.985 45.2109 280.485 45.862 281.459 47.1641C282.219 48.1797 282.599 49.4792 282.599 51.0625C282.599 52.776 282.164 54.2005 281.295 55.3359C280.274 56.6693 278.818 57.3359 276.928 57.3359C275.162 57.3359 273.774 56.7526 272.763 55.5859C271.862 54.4609 271.412 53.0391 271.412 51.3203C271.412 49.7682 271.797 48.4401 272.568 47.3359C273.558 45.9193 275.021 45.2109 276.959 45.2109ZM277.115 55.9453C278.485 55.9453 279.474 55.4557 280.084 54.4766C280.698 53.4922 281.006 52.362 281.006 51.0859C281.006 49.737 280.651 48.651 279.943 47.8281C279.24 47.0052 278.276 46.5938 277.053 46.5938C275.865 46.5938 274.896 47.0026 274.146 47.8203C273.396 48.6328 273.021 49.8333 273.021 51.4219C273.021 52.6927 273.342 53.7656 273.982 54.6406C274.628 55.5104 275.672 55.9453 277.115 55.9453ZM286 45.5234H287.352V52.1875L290.961 48.6328H292.758L289.555 51.7656L292.938 57H291.141L288.531 52.7812L287.352 53.8594V57H286V45.5234ZM295.791 48.6719H297.221V57H295.791V48.6719ZM295.791 45.5234H297.221V47.1172H295.791V45.5234ZM301.114 48.6328H302.45V49.8203C302.846 49.3307 303.265 48.9792 303.708 48.7656C304.15 48.5521 304.642 48.4453 305.184 48.4453C306.372 48.4453 307.174 48.8594 307.59 49.6875C307.819 50.1406 307.934 50.7891 307.934 51.6328V57H306.504V51.7266C306.504 51.2161 306.429 50.8047 306.278 50.4922C306.028 49.9714 305.575 49.7109 304.918 49.7109C304.585 49.7109 304.312 49.7448 304.098 49.8125C303.713 49.9271 303.374 50.1562 303.083 50.5C302.848 50.776 302.694 51.0625 302.622 51.3594C302.554 51.651 302.52 52.0703 302.52 52.6172V57H301.114V48.6328ZM312.858 54.7734C312.858 55.1797 313.007 55.5 313.303 55.7344C313.6 55.9688 313.952 56.0859 314.358 56.0859C314.853 56.0859 315.332 55.9714 315.796 55.7422C316.577 55.362 316.967 54.7396 316.967 53.875V52.7422C316.796 52.8516 316.574 52.9427 316.303 53.0156C316.033 53.0885 315.767 53.1406 315.507 53.1719L314.655 53.2812C314.145 53.349 313.762 53.4557 313.507 53.6016C313.074 53.8464 312.858 54.237 312.858 54.7734ZM316.264 51.9297C316.587 51.888 316.803 51.7526 316.913 51.5234C316.975 51.3984 317.007 51.2188 317.007 50.9844C317.007 50.5052 316.835 50.1589 316.491 49.9453C316.152 49.7266 315.665 49.6172 315.03 49.6172C314.296 49.6172 313.775 49.8151 313.467 50.2109C313.296 50.4297 313.184 50.7552 313.132 51.1875H311.819C311.845 50.1562 312.178 49.4401 312.819 49.0391C313.465 48.6328 314.212 48.4297 315.061 48.4297C316.046 48.4297 316.845 48.6172 317.46 48.9922C318.069 49.3672 318.374 49.9505 318.374 50.7422V55.5625C318.374 55.7083 318.402 55.8255 318.46 55.9141C318.522 56.0026 318.65 56.0469 318.842 56.0469C318.905 56.0469 318.975 56.0443 319.053 56.0391C319.132 56.0286 319.215 56.0156 319.303 56V57.0391C319.085 57.1016 318.918 57.1406 318.803 57.1562C318.689 57.1719 318.533 57.1797 318.335 57.1797C317.85 57.1797 317.499 57.0078 317.28 56.6641C317.165 56.4818 317.085 56.224 317.038 55.8906C316.751 56.2656 316.34 56.5911 315.803 56.8672C315.267 57.1432 314.676 57.2812 314.03 57.2812C313.254 57.2812 312.619 57.0469 312.124 56.5781C311.634 56.1042 311.389 55.513 311.389 54.8047C311.389 54.0286 311.632 53.4271 312.116 53C312.6 52.5729 313.236 52.3099 314.022 52.2109L316.264 51.9297ZM323.095 48.6328L324.704 55.2266L326.337 48.6328H327.915L329.556 55.1875L331.267 48.6328H332.673L330.243 57H328.782L327.079 50.5234L325.431 57H323.97L321.556 48.6328H323.095ZM336.847 54.7734C336.847 55.1797 336.995 55.5 337.292 55.7344C337.589 55.9688 337.941 56.0859 338.347 56.0859C338.842 56.0859 339.321 55.9714 339.784 55.7422C340.566 55.362 340.956 54.7396 340.956 53.875V52.7422C340.784 52.8516 340.563 52.9427 340.292 53.0156C340.021 53.0885 339.756 53.1406 339.495 53.1719L338.644 53.2812C338.133 53.349 337.751 53.4557 337.495 53.6016C337.063 53.8464 336.847 54.237 336.847 54.7734ZM340.253 51.9297C340.576 51.888 340.792 51.7526 340.902 51.5234C340.964 51.3984 340.995 51.2188 340.995 50.9844C340.995 50.5052 340.823 50.1589 340.48 49.9453C340.141 49.7266 339.654 49.6172 339.019 49.6172C338.284 49.6172 337.764 49.8151 337.456 50.2109C337.284 50.4297 337.172 50.7552 337.12 51.1875H335.808C335.834 50.1562 336.167 49.4401 336.808 49.0391C337.454 48.6328 338.201 48.4297 339.05 48.4297C340.034 48.4297 340.834 48.6172 341.448 48.9922C342.058 49.3672 342.362 49.9505 342.362 50.7422V55.5625C342.362 55.7083 342.391 55.8255 342.448 55.9141C342.511 56.0026 342.639 56.0469 342.831 56.0469C342.894 56.0469 342.964 56.0443 343.042 56.0391C343.12 56.0286 343.204 56.0156 343.292 56V57.0391C343.073 57.1016 342.907 57.1406 342.792 57.1562C342.678 57.1719 342.521 57.1797 342.323 57.1797C341.839 57.1797 341.487 57.0078 341.269 56.6641C341.154 56.4818 341.073 56.224 341.027 55.8906C340.74 56.2656 340.329 56.5911 339.792 56.8672C339.256 57.1432 338.665 57.2812 338.019 57.2812C337.243 57.2812 336.607 57.0469 336.112 56.5781C335.623 56.1042 335.378 55.513 335.378 54.8047C335.378 54.0286 335.62 53.4271 336.105 53C336.589 52.5729 337.224 52.3099 338.011 52.2109L340.253 51.9297Z" fill="#333333"/>
</svg>
