<svg width="403" height="29" viewBox="0 0 403 29" fill="none" xmlns="http://www.w3.org/2000/svg">
<path d="M172 23.2559C173.278 23.2559 174.315 23.1152 175.112 22.834C176.623 22.2949 177.379 21.293 177.379 19.8281C177.379 18.9727 177.004 18.3105 176.254 17.8418C175.504 17.3848 174.326 16.9805 172.721 16.6289L169.979 16.0137C167.283 15.4043 165.42 14.7422 164.389 14.0273C162.643 12.832 161.77 10.9629 161.77 8.41992C161.77 6.09961 162.614 4.17188 164.301 2.63672C165.989 1.10156 168.467 0.333984 171.737 0.333984C174.467 0.333984 176.793 1.06055 178.715 2.51367C180.649 3.95508 181.662 6.05273 181.756 8.80664H176.553C176.459 7.24805 175.78 6.14062 174.514 5.48438C173.67 5.05078 172.621 4.83398 171.367 4.83398C169.973 4.83398 168.86 5.11523 168.028 5.67773C167.196 6.24023 166.78 7.02539 166.78 8.0332C166.78 8.95898 167.19 9.65039 168.01 10.1074C168.537 10.4121 169.662 10.7695 171.385 11.1797L175.85 12.252C177.807 12.7207 179.283 13.3477 180.28 14.1328C181.826 15.3516 182.6 17.1152 182.6 19.4238C182.6 21.791 181.692 23.7598 179.875 25.3301C178.071 26.8887 175.516 27.668 172.211 27.668C168.836 27.668 166.182 26.9004 164.248 25.3652C162.315 23.8184 161.348 21.6973 161.348 19.002H166.516C166.68 20.1855 167.002 21.0703 167.483 21.6562C168.362 22.7227 169.867 23.2559 172 23.2559Z" fill="black"/>
<path d="M142.077 27.7207C138.374 27.7207 135.544 26.7129 133.587 24.6973C130.962 22.2246 129.65 18.6621 129.65 14.0098C129.65 9.26367 130.962 5.70117 133.587 3.32227C135.544 1.30664 138.374 0.298828 142.077 0.298828C145.78 0.298828 148.611 1.30664 150.568 3.32227C153.181 5.70117 154.487 9.26367 154.487 14.0098C154.487 18.6621 153.181 22.2246 150.568 24.6973C148.611 26.7129 145.78 27.7207 142.077 27.7207ZM147.193 20.7598C148.446 19.1777 149.073 16.9277 149.073 14.0098C149.073 11.1035 148.441 8.85938 147.175 7.27734C145.921 5.68359 144.222 4.88672 142.077 4.88672C139.933 4.88672 138.222 5.67773 136.945 7.25977C135.667 8.8418 135.029 11.0918 135.029 14.0098C135.029 16.9277 135.667 19.1777 136.945 20.7598C138.222 22.3418 139.933 23.1328 142.077 23.1328C144.222 23.1328 145.927 22.3418 147.193 20.7598Z" fill="black"/>
<path d="M116.215 1.08984H121.594V27H116.215V1.08984Z" fill="black"/>
<path d="M101.989 17.0156V1.08984H107.491V17.0156C107.491 19.7695 107.064 21.9141 106.208 23.4492C104.614 26.2617 101.573 27.668 97.0851 27.668C92.5968 27.668 89.5499 26.2617 87.9445 23.4492C87.089 21.9141 86.6613 19.7695 86.6613 17.0156V1.08984H92.1632V17.0156C92.1632 18.7969 92.3741 20.0977 92.796 20.918C93.4523 22.3711 94.882 23.0977 97.0851 23.0977C99.2765 23.0977 100.7 22.3711 101.357 20.918C101.778 20.0977 101.989 18.7969 101.989 17.0156Z" fill="black"/>
<path d="M70.2559 27.1406C69.0958 27.5273 67.7071 27.7207 66.0899 27.7207C62.7149 27.7207 59.9258 26.7129 57.7227 24.6973C55.0508 22.2715 53.7149 18.709 53.7149 14.0098C53.7149 9.27539 55.086 5.69531 57.8282 3.26953C60.0665 1.28906 62.8497 0.298828 66.1778 0.298828C69.5294 0.298828 72.3419 1.34766 74.6153 3.44531C77.2403 5.87109 78.5528 9.26367 78.5528 13.623C78.5528 15.9316 78.2715 17.8652 77.709 19.4238C77.252 20.9121 76.5782 22.1484 75.6876 23.1328L78.6758 25.9277L75.8458 28.8809L72.7169 25.9277C71.7676 26.502 70.9473 26.9062 70.2559 27.1406ZM69.0958 22.4648L66.4766 19.9688L69.2715 17.0508L71.8907 19.5469C72.3008 18.7031 72.588 17.9648 72.752 17.332C73.0098 16.3828 73.1387 15.2754 73.1387 14.0098C73.1387 11.1035 72.5411 8.85938 71.3458 7.27734C70.1622 5.68359 68.4278 4.88672 66.1426 4.88672C63.9981 4.88672 62.2872 5.64844 61.0098 7.17188C59.7325 8.69531 59.0938 10.9746 59.0938 14.0098C59.0938 17.5605 60.0079 20.1035 61.836 21.6387C63.0196 22.6348 64.4376 23.1328 66.0899 23.1328C66.711 23.1328 67.3087 23.0566 67.8829 22.9043C68.1993 22.8223 68.6036 22.6758 69.0958 22.4648Z" fill="black"/>
<path d="M44.7452 15.6797H32.1592V22.3418H46.503V27H26.8682V1.08984H45.8702V5.67773H32.1592V11.1797H44.7452V15.6797Z" fill="black"/>
<path d="M0.742188 1.08984H6.15625V22.3418H18.9883V27H0.742188V1.08984Z" fill="black"/>
<path d="M383.218 1.17773H402.044V4.3418H386.628V12.1816H400.884V15.1699H386.628V23.9238H402.308V27H383.218V1.17773Z" fill="black"/>
<path d="M356.951 1.17773L364.369 23.168L371.699 1.17773H375.619L366.198 27H362.489L353.084 1.17773H356.951Z" fill="black"/>
<path d="M341.724 1.17773H345.257V27H341.724V1.17773Z" fill="black"/>
<path d="M333.756 1.17773V4.25391H325.055V27H321.504V4.25391H312.803V1.17773H333.756Z" fill="black"/>
<path d="M302.919 16.418L298.999 5.00977L294.833 16.418H302.919ZM297.171 1.17773H301.126L310.495 27H306.663L304.044 19.2656H293.831L291.036 27H287.45L297.171 1.17773Z" fill="black"/>
<path d="M262.027 1.17773H280.854V4.3418H265.438V12.1816H279.693V15.1699H265.438V23.9238H281.117V27H262.027V1.17773Z" fill="black"/>
<path d="M243.724 13.0078C245.364 13.0078 246.659 12.6797 247.608 12.0234C248.569 11.3672 249.05 10.1836 249.05 8.47266C249.05 6.63281 248.382 5.37891 247.046 4.71094C246.331 4.35938 245.376 4.18359 244.181 4.18359H235.638V13.0078H243.724ZM232.14 1.17773H244.093C246.062 1.17773 247.685 1.46484 248.962 2.03906C251.388 3.14062 252.601 5.17383 252.601 8.13867C252.601 9.68555 252.278 10.9512 251.634 11.9355C251.001 12.9199 250.11 13.7109 248.962 14.3086C249.97 14.7188 250.726 15.2578 251.23 15.9258C251.745 16.5938 252.032 17.6777 252.091 19.1777L252.214 22.6406C252.249 23.625 252.331 24.3574 252.46 24.8379C252.671 25.6582 253.046 26.1855 253.585 26.4199V27H249.296C249.179 26.7773 249.085 26.4902 249.015 26.1387C248.944 25.7871 248.886 25.1074 248.839 24.0996L248.628 19.793C248.546 18.1055 247.919 16.9746 246.747 16.4004C246.079 16.084 245.03 15.9258 243.601 15.9258H235.638V27H232.14V1.17773Z" fill="black"/>
<path d="M212.623 0.474609C215.893 0.474609 218.43 1.33594 220.234 3.05859C222.039 4.78125 223.041 6.73828 223.24 8.92969H219.83C219.443 7.26562 218.67 5.94727 217.51 4.97461C216.361 4.00195 214.744 3.51562 212.658 3.51562C210.115 3.51562 208.059 4.41211 206.488 6.20508C204.93 7.98633 204.15 10.7227 204.15 14.4141C204.15 17.4375 204.854 19.8926 206.26 21.7793C207.678 23.6543 209.787 24.5918 212.588 24.5918C215.166 24.5918 217.129 23.6016 218.477 21.6211C219.191 20.5781 219.725 19.207 220.076 17.5078H223.486C223.182 20.2266 222.174 22.5059 220.463 24.3457C218.412 26.5605 215.646 27.668 212.166 27.668C209.166 27.668 206.646 26.7598 204.607 24.9434C201.924 22.541 200.582 18.832 200.582 13.8164C200.582 10.0078 201.59 6.88477 203.605 4.44727C205.785 1.79883 208.791 0.474609 212.623 0.474609Z" fill="black"/>
</svg>
